# xmcd
#
# Track frame offsets: 
#        183
#        14295
#        30578
#        55123
#        83808
#        103348
#        122573
#        142120
#
# Disc length: 2172 seconds
#
# Revision: 1
# Processed by: cddbd v1.5.2PL0 Copyright (c) Steve Scherf et al.
# Submitted via: ExactAudioCopy v0.95b4
#
DISCID=65087a08
DTITLE=Golden Earring - Switch
DYEAR=1975
DGENRE=Rock
TTITLE0=Intro: Plus minus absurdio
TTITLE1=Love is a rodeo
TTITLE2=The switch
TTITLE3=Kill me (ce soir)
TTITLE4=Tons of time
TTITLE5=Daddy's gonna save my soul
TTITLE6=Troubles and hassles
TTITLE7=The lonesome D.J.
EXTD=
EXTT0=
EXTT1=
EXTT2=
EXTT3=
EXTT4=
EXTT5=
EXTT6=
EXTT7=
PLAYORDER=
